<?xml version="1.0" encoding="UTF-8" standalone="no"?>
<!-- Created with Inkscape (http://www.inkscape.org/) -->
<svg id="svg7384" xmlns:rdf="http://www.w3.org/1999/02/22-rdf-syntax-ns#" xmlns="http://www.w3.org/2000/svg" xmlns:osb="http://www.openswatchbook.org/uri/2009/osb" height="16" width="16" version="1.1" xmlns:cc="http://creativecommons.org/ns#" xmlns:dc="http://purl.org/dc/elements/1.1/">
 <metadata id="metadata90">
  <rdf:RDF>
   <cc:Work rdf:about="">
    <dc:format>image/svg+xml</dc:format>
    <dc:type rdf:resource="http://purl.org/dc/dcmitype/StillImage"/>
    <dc:title>Gnome Symbolic Icon Theme</dc:title>
   </cc:Work>
  </rdf:RDF>
 </metadata>
 <title id="title9167">Gnome Symbolic Icon Theme</title>
 <g id="layer10" transform="translate(-261 -567)">
  <path id="rect42761-1" style="color-rendering:auto;text-decoration-color:#000000;color:#bebebe;shape-rendering:auto;solid-color:#000000;text-decoration-line:none;fill:#bebebe;mix-blend-mode:normal;block-progression:tb;text-indent:0;image-rendering:auto;white-space:normal;text-decoration-style:solid;isolation:auto;text-transform:none" d="m264.2 567c-1.2016 0-2.1953 1.0012-2.1953 2.2012v7.5977c0 1.1999 0.99372 2.2012 2.1953 2.2012h6.6094c1.2016 0 2.1953-1.0012 2.1953-2.2012v-7.5977c0-1.1999-0.99372-2.2012-2.1953-2.2012h-6.6094zm3.3047 2c1.9212 0 3.5 1.5788 3.5 3.5s-1.5788 3.4996-3.5 3.5h-3.5059l0.006-3.5c-0.0237-1.921 1.5788-3.5 3.5-3.5zm0 2c-0.84027 0-1.5 0.65973-1.5 1.5s0.65973 1.5 1.5 1.5 1.5-0.65973 1.5-1.5-0.65973-1.5-1.5-1.5z"/>
  <path id="rect42761-1-8" style="color:#bebebe;text-indent:0;block-progression:tb;text-decoration-line:none;text-transform:none;fill:#bebebe" d="m274 571v2.1875 6.8125 0.8125c0 0.1309-0.0637 0.1875-0.1875 0.1875h-6.625c-0.1238 0-0.1875-0.0566-0.1875-0.1875v-0.8125h-2v0.8125c0 1.1999 0.9859 2.1875 2.1875 2.1875h6.625c1.2016 0 2.1875-0.98758 2.1875-2.1875v-7.625c0-1.136-0.88628-2.0899-2-2.1875z"/>
 </g>
</svg>
