<?xml version="1.0" encoding="UTF-8" standalone="no"?>
<!-- Created with Inkscape (http://www.inkscape.org/) -->
<svg id="svg7384" xmlns:rdf="http://www.w3.org/1999/02/22-rdf-syntax-ns#" xmlns="http://www.w3.org/2000/svg" xmlns:osb="http://www.openswatchbook.org/uri/2009/osb" height="16" width="16.531" version="1.1" xmlns:cc="http://creativecommons.org/ns#" xmlns:dc="http://purl.org/dc/elements/1.1/">
 <metadata id="metadata90">
  <rdf:RDF>
   <cc:Work rdf:about="">
    <dc:format>image/svg+xml</dc:format>
    <dc:type rdf:resource="http://purl.org/dc/dcmitype/StillImage"/>
    <dc:title>Gnome Symbolic Icon Theme</dc:title>
   </cc:Work>
  </rdf:RDF>
 </metadata>
 <title id="title9167">Gnome Symbolic Icon Theme</title>
 <g id="layer10" transform="translate(-260.75 -547)">
  <path id="path12732" style="color:#000000;text-indent:0;block-progression:tb;text-decoration-line:none;enable-background:new;text-transform:none;fill:#bebebe" d="m269 547-1.0019 0.0275 0.0312 0.5c0.0471 0.46556-0.20254 0.96951-0.59375 1.2188-0.35305 0.24895-0.90493 0.1983-1.5938 0.21875-0.34855 0.003-0.70297 0.0839-1.0312 0.28125-0.32828 0.19733-0.64985 0.5469-0.71875 1-0.15832 0.89239 0.45382 1.6334 1.1562 1.7812 0.80729 0.17604 1.6445 0.0756 2.625 0 0.25579-0.0197 0.60056 0.0205 0.8125 0.125 0.33374 0.26075 0.28443 0.40291 0.28125 0.875h-4.9062-0.75l-0.21875 0.71875-1.9688 7-0.375 1.2812h1.3438 13.875 1.3125l-0.375-1.2812-1.8132-6.0272-1.5862 1.5366 1.1493 3.7718h-11.281l1.4375-5h3.3125l1.8438-1.9687v-0.0312-0.46875c-0.003-0.61146-0.40574-1.0966-0.84375-1.3125-0.43801-0.21594-0.93011-0.25063-1.3438-0.21875-0.99591 0.0768-1.7395 0.12494-2.3125 0h-0.0312c-0.19949-0.042-0.41743-0.20971-0.34375-0.625 0.0189-0.12428 0.0777-0.19648 0.21875-0.28125 0.14101-0.0848 0.35246-0.15487 0.53125-0.15625h0.0312c0.56397-0.0167 1.377 0.11764 2.0938-0.40625 0.81874-0.59848 1.1537-1.3952 1.0625-2.125z"/>
  <path id="path12757" style="color-rendering:auto;text-decoration-color:#000000;color:#000000;shape-rendering:geometricPrecision;solid-color:#000000;text-decoration-line:none;fill:#bebebe;fill-rule:evenodd;mix-blend-mode:normal;block-progression:tb;text-indent:0;clip-rule:evenodd;image-rendering:optimizeQuality;white-space:normal;text-decoration-style:solid;isolation:auto;paint-order:normal;text-transform:none" d="m275.01 551.35c-0.40883-0.40883-1.0717-0.40883-1.4805 0-0.0349 0.0354-0.0672 0.0733-0.0967 0.11324l-4.9526 4.9526-0.45047 1.8979 1.8703-0.38976 4.9996-4.9996c0.0389-0.0287 0.0759-0.0601 0.11048-0.0939 0.40883-0.40883 0.40883-1.0717 0-1.4805z"/>
 </g>
</svg>
