<?xml version="1.0" encoding="UTF-8" standalone="no"?>
<!-- Created with Inkscape (http://www.inkscape.org/) -->
<svg id="svg7384" xmlns:rdf="http://www.w3.org/1999/02/22-rdf-syntax-ns#" xmlns="http://www.w3.org/2000/svg" xmlns:osb="http://www.openswatchbook.org/uri/2009/osb" height="16" width="16" version="1.1" xmlns:cc="http://creativecommons.org/ns#" xmlns:dc="http://purl.org/dc/elements/1.1/">
 <metadata id="metadata90">
  <rdf:RDF>
   <cc:Work rdf:about="">
    <dc:format>image/svg+xml</dc:format>
    <dc:type rdf:resource="http://purl.org/dc/dcmitype/StillImage"/>
    <dc:title>Gnome Symbolic Icon Theme</dc:title>
   </cc:Work>
  </rdf:RDF>
 </metadata>
 <title id="title9167">Gnome Symbolic Icon Theme</title>
 <g id="layer10" transform="translate(-81 -567)">
  <path id="path26971" style="color:#000000;enable-background:new;fill:#bebebe" d="m92.105 577c-0.78136 0.64834-1.6802 1.518-3.0647 2.0098l-7.0404-0.01v3h14v-3l-2-2zm-0.60512 1.7969c0.38953 0 0.70313 0.3136 0.70313 0.70313s-0.3136 0.70313-0.70313 0.70313-0.70313-0.3136-0.70313-0.70313 0.3136-0.70313 0.70313-0.70313zm2 0.0234c0.37655 0 0.67969 0.30314 0.67969 0.67969s-0.30314 0.67969-0.67969 0.67969-0.67969-0.30314-0.67969-0.67969 0.30314-0.67969 0.67969-0.67969z"/>
  <path id="rect5922-4" style="enable-background:new;fill:#bebebe" d="m92.447 570.05c0.32798 0 0.59496 0.26223 0.59496 0.59496v0.0383c-0.01051 4.0613-3.3061 7.3506-7.3698 7.3506h-0.01916c-0.33461 0-0.59499-0.27391-0.59499-0.61415v-0.61415-1.2283c0-0.34023 0.27391-0.61414 0.61415-0.61414h1.2283c0.34024 0 0.61415 0.27391 0.61415 0.61414v0.28789c1.5703-0.55512 2.8035-1.7883 3.3586-3.3586h-0.28788c-0.34025 0-0.61415-0.27391-0.61415-0.61415v-1.2283c0-0.34025 0.2739-0.61415 0.61415-0.61415h0.61415 0.61415 0.59496 0.01916 0.01916z"/>
 </g>
</svg>
