<?xml version="1.0" encoding="UTF-8" standalone="no"?>
<!-- Created with Inkscape (http://www.inkscape.org/) -->
<svg id="svg7384" xmlns:rdf="http://www.w3.org/1999/02/22-rdf-syntax-ns#" xmlns="http://www.w3.org/2000/svg" xmlns:osb="http://www.openswatchbook.org/uri/2009/osb" height="16" viewBox="0 0 16.000002 16" width="16" version="1.1" xmlns:cc="http://creativecommons.org/ns#" xmlns:dc="http://purl.org/dc/elements/1.1/">
 <metadata id="metadata90">
  <rdf:RDF>
   <cc:Work rdf:about="">
    <dc:format>image/svg+xml</dc:format>
    <dc:type rdf:resource="http://purl.org/dc/dcmitype/StillImage"/>
    <dc:title>Gnome Symbolic Icon Theme</dc:title>
   </cc:Work>
  </rdf:RDF>
 </metadata>
 <title id="title9167">Gnome Symbolic Icon Theme</title>
 <g id="layer10" transform="translate(-141 -547)">
  <path id="path11106-2" style="fill:#bebebe" d="m147 558.95v2.05h-5.5312c-0.26299 0-0.46875 0.2057-0.46875 0.4688v1.0624c0 0.263 0.20576 0.4688 0.46875 0.4688h13.062c0.26299 0 0.46875-0.2058 0.46875-0.4688v-1.0624c0-0.263-0.20575-0.4688-0.46875-0.4688h-5.5312v-2.0469z"/>
  <path id="rect8035" style="color:#000000;enable-background:new;fill:#bebebe" d="m145.01 549.27v5.7226h5.9922v-4.0508l-2-1.9375h-3.7266c-0.17216 0-0.26563 0.0937-0.26563 0.26563zm-1.0234 5.7363c-0.56272 0-0.98437 0.34963-0.98437 0.99023v2.9688h9.9688v-2.97c0-0.6414-0.40603-0.98828-0.95313-0.98828l-0.002 0.97851-8.0293 0.0352z"/>
 </g>
</svg>
