<?xml version="1.0" encoding="UTF-8" standalone="no"?>
<!-- Created with Inkscape (http://www.inkscape.org/) -->
<svg id="svg5504" xmlns:rdf="http://www.w3.org/1999/02/22-rdf-syntax-ns#" xmlns="http://www.w3.org/2000/svg" height="16" width="16" version="1.1" xmlns:cc="http://creativecommons.org/ns#" xmlns:dc="http://purl.org/dc/elements/1.1/">
 <metadata id="metadata5509">
  <rdf:RDF>
   <cc:Work rdf:about="">
    <dc:format>image/svg+xml</dc:format>
    <dc:type rdf:resource="http://purl.org/dc/dcmitype/StillImage"/>
    <dc:title/>
   </cc:Work>
  </rdf:RDF>
 </metadata>
 <g id="layer1" transform="translate(-27 127.64)">
  <path id="path2985" style="fill:#888a85" d="m40.756-123.14c0.16288 0.32584 0.24433 0.62748 0.24434 0.90497-0.000014 0.31981-0.08146 0.62145-0.24434 0.90502-0.16291 0.27749-0.38312 0.49774-0.66063 0.66063-0.28357 0.16289-0.58523 0.24434-0.90498 0.24434-0.3258 0-0.62746-0.0815-0.90498-0.24434-0.11464-0.0664-0.22324-0.14482-0.32579-0.23533l-2.181 1.2579 2.181 1.267c0.10255-0.0905 0.21115-0.16892 0.32579-0.23528 0.27751-0.16289 0.57917-0.24434 0.90498-0.24434 0.31974 0 0.6214 0.0815 0.90498 0.24434 0.27751 0.16289 0.49772 0.38314 0.66063 0.66063 0.16288 0.28357 0.24433 0.58521 0.24434 0.90497-0.000014 0.31374-0.08146 0.61239-0.24434 0.89591-0.16894 0.28357-0.38915 0.5068-0.66063 0.66969-0.28357 0.16289-0.58523 0.24434-0.90498 0.24434-0.3077 0-0.60936-0.0815-0.90498-0.24434-0.28357-0.15687-0.5068-0.37706-0.66968-0.66063-0.15687-0.27749-0.2353-0.57919-0.23529-0.90497-0.000011-0.13272 0.01206-0.26241 0.0362-0.38911l-2.181-1.267v2.5249c0.12669 0.0422 0.24735 0.0965 0.36199 0.16289 0.27752 0.16289 0.49773 0.38314 0.66063 0.66063 0.16289 0.27755 0.24433 0.57918 0.24434 0.90497-0.000009 0.32584-0.08146 0.62748-0.24434 0.90497-0.1629 0.27754-0.38312 0.49774-0.66063 0.66068-0.27753 0.16289-0.57919 0.24434-0.90498 0.24434-0.3258 0-0.62746-0.0815-0.90498-0.24434-0.27753-0.16294-0.49774-0.38314-0.66063-0.66068-0.1629-0.27749-0.24435-0.57913-0.24434-0.90497-0.000006-0.32579 0.08144-0.62742 0.24434-0.90497 0.16289-0.27749 0.3831-0.49774 0.66063-0.66063 0.11462-0.0664 0.23529-0.12063 0.36199-0.16289v-2.5249l-2.181 1.267c0.02413 0.1267 0.03619 0.25639 0.0362 0.38911-0.000005 0.32578-0.07844 0.62748-0.23529 0.90497-0.1629 0.28357-0.38613 0.50376-0.66968 0.66063-0.28356 0.16289-0.58522 0.24434-0.90498 0.24434-0.32579 0-0.62745-0.0815-0.90498-0.24434-0.27753-0.15687-0.49774-0.37706-0.66063-0.66063-0.1629-0.27749-0.24434-0.57919-0.24434-0.90497-0.000002-0.31976 0.08145-0.6214 0.24434-0.90497 0.16289-0.27749 0.3831-0.49774 0.66063-0.66063 0.28356-0.16289 0.58522-0.24434 0.90498-0.24434s0.62141 0.0815 0.90498 0.24434c0.11463 0.0664 0.22322 0.14482 0.32579 0.23528l2.181-1.267-2.181-1.2579c-0.09654 0.0905-0.20513 0.16897-0.32579 0.23533-0.29563 0.16289-0.59729 0.24434-0.90498 0.24434-0.32579 0-0.62745-0.0815-0.90498-0.24434-0.27753-0.16289-0.49774-0.38314-0.66063-0.66063-0.1629-0.27754-0.24434-0.57918-0.24434-0.90502-0.000002-0.32573 0.08145-0.62742 0.24434-0.90497 0.16289-0.28352 0.3831-0.50376 0.66063-0.66063 0.28356-0.16289 0.58522-0.24434 0.90498-0.24434 0.30769 0 0.60935 0.0815 0.90498 0.24434 0.28356 0.15687 0.50678 0.37711 0.66968 0.66063 0.15686 0.27755 0.23529 0.57924 0.23529 0.90497-0.000005 0.13277-0.01207 0.26246-0.0362 0.38916l2.181 1.267v-2.5249c-0.1267-0.0422-0.24737-0.0965-0.36199-0.16289-0.27753-0.16284-0.49774-0.38309-0.66063-0.66063-0.1629-0.27749-0.24435-0.57913-0.24434-0.90497-0.000006-0.32579 0.08144-0.62742 0.24434-0.90497 0.16289-0.27749 0.3831-0.49774 0.66063-0.66063 0.28355-0.16289 0.58521-0.24434 0.90498-0.24434 0.32578 0 0.62744 0.0815 0.90498 0.24434 0.27752 0.16289 0.49773 0.38314 0.66063 0.66063 0.16289 0.27755 0.24433 0.57918 0.24434 0.90497-0.000009 0.32584-0.08146 0.62748-0.24434 0.90497-0.1629 0.27754-0.38312 0.49779-0.66063 0.66063-0.11464 0.0664-0.2353 0.12068-0.36199 0.16289v2.5249l2.181-1.267c-0.02415-0.1267-0.03621-0.25639-0.0362-0.38916-0.000011-0.32573 0.07842-0.62742 0.23529-0.90497 0.15685-0.27147 0.38008-0.49166 0.66968-0.66063 0.27751-0.16289 0.57917-0.24434 0.90498-0.24434 0.31974 0 0.6214 0.0815 0.90498 0.24434 0.30768 0.18101 0.52789 0.40126 0.66063 0.66063"/>
 </g>
</svg>
