<?xml version="1.0" encoding="UTF-8" standalone="no"?>
<!-- Created with Inkscape (http://www.inkscape.org/) -->
<svg id="svg5504" xmlns:rdf="http://www.w3.org/1999/02/22-rdf-syntax-ns#" xmlns="http://www.w3.org/2000/svg" height="16" width="16" version="1.1" xmlns:cc="http://creativecommons.org/ns#" xmlns:dc="http://purl.org/dc/elements/1.1/">
 <metadata id="metadata5509">
  <rdf:RDF>
   <cc:Work rdf:about="">
    <dc:format>image/svg+xml</dc:format>
    <dc:type rdf:resource="http://purl.org/dc/dcmitype/StillImage"/>
    <dc:title/>
   </cc:Work>
  </rdf:RDF>
 </metadata>
 <g id="layer1" transform="translate(-11 111.64)">
  <path id="path2985-88" style="fill:#888a85" d="m15.114-100.98-0.4 1.1091c1.0364 0.41818 2 0.63636 2.8909 0.65455v2.5818h1.0727v-2.6364c1.1273-0.14545 1.9273-0.58182 2.3818-1.2545 0.32727-0.47273 0.45454-0.81818 0.45454-1.5636 0-0.8-0.72727-1.4727-1.3273-1.7636-0.70909-0.34546-1.6545-0.67273-2.4364-0.92728-0.54545-0.18182-1.3091-0.47272-1.3091-1.0909 0-0.23636 0.07273-0.43636 0.21818-0.63636 0.4-0.56364 1.0545-0.67273 2.0909-0.67273 0.47273 0 1.1091 0.10909 1.9091 0.32728l0.36364-1.1091c-0.18182-0.0545-0.30909-0.10909-0.4-0.12727l-0.2-0.0545c-0.16364-0.0546-0.47273-0.12728-0.69091-0.12728-0.18182 0-0.4-0.0545-0.58182-0.0545h-0.47273v-2.3091h-1.0727v2.4182c-0.61818 0.10909-1.1091 0.29091-1.4909 0.52727-0.56364 0.36364-1.1818 1-1.1818 1.9455 0 0.69091 0.25455 1.2364 0.78182 1.6182 0.23636 0.18182 0.50909 0.34545 0.8 0.49091 0.56364 0.29091 1.2182 0.41818 1.8182 0.63636 0.70909 0.27273 1.5818 0.36364 1.5818 1.3273 0 0.29091-0.10909 0.54546-0.32727 0.76364-0.43636 0.43636-1.0909 0.54545-1.9455 0.54545-1.1455 0-1.5636-0.21818-2.5273-0.61818"/>
 </g>
</svg>
