<?xml version="1.0" encoding="UTF-8" standalone="no"?>
<!-- Created with Inkscape (http://www.inkscape.org/) -->
<svg id="svg5504" xmlns:rdf="http://www.w3.org/1999/02/22-rdf-syntax-ns#" xmlns="http://www.w3.org/2000/svg" height="16" width="16" version="1.1" xmlns:cc="http://creativecommons.org/ns#" xmlns:dc="http://purl.org/dc/elements/1.1/">
 <metadata id="metadata5509">
  <rdf:RDF>
   <cc:Work rdf:about="">
    <dc:format>image/svg+xml</dc:format>
    <dc:type rdf:resource="http://purl.org/dc/dcmitype/StillImage"/>
    <dc:title/>
   </cc:Work>
  </rdf:RDF>
 </metadata>
 <g id="layer1" transform="translate(5 111.64)">
  <path id="path2985-0" style="fill:#888a85" d="m10-104.58c-0.0000156 0.32587-0.17059 0.54229-0.51171 0.64917-0.21386 0.0662-0.58555 0.0993-1.1151 0.0993-0.61101 0-1.054-0.0382-1.3289-0.11457-0.42771-0.11201-0.65683-0.34876-0.68737-0.7103 0.76883 0.0866 1.5224 0.12987 2.2607 0.12987 0.46333 0 0.92412-0.0178 1.3824-0.0535m0-0.25969c-0.4379 0.0356-0.78667 0.0535-1.0463 0.0535-0.21896 0-1.1482-0.0484-2.7877-0.14512-0.061111-0.3462-0.43026-0.56006-1.1074-0.64157l0.030549 0.76379c0.64663 0.43279 1.2424 1.1711 1.7872 2.2148 0.52952 0.99798 0.79428 1.833 0.7943 2.5051-0.0000135 0.64157-0.17313 0.96235-0.51935 0.96235h-9.1955c-0.43788 0-0.65683-0.2673-0.65682-0.80193-0.000003-0.66189 0.2724-1.5224 0.81721-2.5815 0.57535-1.11 1.1787-1.8763 1.8101-2.2989v-0.76379c-0.66192 0.0764-1.026 0.29024-1.0922 0.64157-0.5499 0.0968-1.3213 0.14512-2.3142 0.14512-0.59572 0-1.1023-0.0178-1.5199-0.0535 0.056007-1.0132 0.49898-1.7031 1.3289-2.0697 0.5499-0.24949 1.5453-0.44296 2.9863-0.58048 1.0489-0.1018 2.113-0.15272 3.1925-0.15272 2.9684 0 5.0229 0.2444 6.1634 0.7332 0.85538 0.35641 1.2984 1.0463 1.3289 2.0697m-5.4761-0.8c-0.71793-0.14768-1.4002-0.2215-2.0468-0.2215-0.62119 0-1.3035 0.0738-2.0468 0.2215l0.37424 0.65682h3.3605l0.35896-0.65682m0.50407 3.2077c-0.0000104-0.41242-0.2826-0.74593-0.84776-1.0005-0.46335-0.20873-1.0209-0.31309-1.6726-0.31314-0.63137 0.00005-1.1889 0.10949-1.6726 0.32843-0.57536 0.2444-0.86304 0.57283-0.86303 0.98525-0.00000565 0.4175 0.28767 0.74844 0.86303 0.99284 0.4837 0.21899 1.0412 0.32843 1.6726 0.32843 0.63136 0 1.1889-0.10944 1.6726-0.32843 0.56516-0.2444 0.84775-0.57534 0.84776-0.99284m1.2678 2.5356 0.15275-0.10693-0.15275-0.10692h-7.5382l-0.16039 0.10692 0.16039 0.10693h7.5382m-1.6573-3.0397c-0.0000104 0.16806-0.12476 0.25205-0.37424 0.25205-0.26478 0-0.39716-0.084-0.39715-0.25205-0.0000096-0.17818 0.13237-0.26729 0.39715-0.26729 0.24948 0 0.37423 0.0891 0.37424 0.26729m-0.80193-0.38951c-0.0000096 0.17822-0.12985 0.26734-0.38951 0.26734-0.2495 0-0.37424-0.0891-0.37424-0.26734-0.0000087-0.16289 0.12474-0.24436 0.37424-0.2444 0.25966 0.00004 0.3895 0.0815 0.38951 0.2444m1.0463 1.0082c-0.0000104 0.17818-0.12985 0.2673-0.38951 0.2673-0.2495 0-0.37425-0.0891-0.37424-0.2673-0.0000096-0.16806 0.12474-0.25204 0.37424-0.25204 0.25966 0 0.3895 0.084 0.38951 0.25204m-2.2149-1.1151c-0.0000087 0.17823-0.13239 0.26734-0.39715 0.26734-0.2495 0-0.37424-0.0891-0.37424-0.26734-0.0000074-0.16802 0.12474-0.252 0.37424-0.252 0.26476 0 0.39714 0.084 0.39715 0.252m1.6879 1.7108c-0.00001 0.17315-0.12985 0.2597-0.38951 0.2597-0.2495 0-0.37425-0.0866-0.37424-0.2597-0.0000095-0.16801 0.12474-0.252 0.37424-0.252 0.25966 0 0.3895 0.084 0.38951 0.252m-0.28259-0.72555c-0.0000099 0.22407-0.1884 0.42263-0.56517 0.59573-0.32587 0.13747-0.66956 0.20621-1.0311 0.20621-0.35133 0-0.68483-0.0687-1.0005-0.20621-0.36661-0.15785-0.5499-0.35641-0.5499-0.59573-0.00000652-0.2291 0.19857-0.41241 0.59572-0.54988 0.32077-0.10185 0.65936-0.15273 1.0158-0.15277 0.35132 0.00004 0.67973 0.056 0.98523 0.16806 0.36659 0.12218 0.54989 0.3004 0.5499 0.53459m-2.4898-0.7179c-0.0000074 0.16802-0.12475 0.25205-0.37424 0.25205-0.25968 0-0.38952-0.084-0.38951-0.25205-0.00000695-0.17823 0.12983-0.2673 0.38951-0.26734 0.24948 0.00004 0.37423 0.0891 0.37424 0.26734m1.8177 1.749c-0.0000091 0.1731-0.12985 0.25965-0.38951 0.25965-0.2495 0-0.37424-0.0866-0.37424-0.25965-0.0000082-0.16801 0.12474-0.25204 0.37424-0.25204 0.25967 0 0.3895 0.084 0.38951 0.25204m-2.4745-1.2067c-0.00000652 0.16806-0.12475 0.25205-0.37424 0.25205-0.25968 0-0.38952-0.084-0.38951-0.25205-0.00000608-0.1731 0.12983-0.25965 0.38951-0.25965 0.24948 0 0.37423 0.0865 0.37424 0.25965m1.2373 1.1609c-0.0000083 0.16801-0.12475 0.25204-0.37424 0.25204-0.25968 0-0.38952-0.084-0.38951-0.25204-0.0000069-0.1731 0.12983-0.25965 0.38951-0.2597 0.24948 0.00005 0.37423 0.0866 0.37424 0.2597m-1.0158-0.38187c-0.0000069 0.16801-0.12475 0.25204-0.37424 0.25204-0.25968 0-0.38952-0.084-0.38951-0.25204-0.00000608-0.1731 0.12983-0.25965 0.38951-0.2597 0.24948 0.00005 0.37423 0.0866 0.37424 0.2597m-2.4898-2.803c-0.030554 0.35133-0.29023 0.59321-0.77902 0.72555-0.30041 0.0662-0.75866 0.0993-1.3747 0.0993-0.46843 0-0.81212-0.0408-1.0311-0.12222-0.3055-0.11709-0.45825-0.32586-0.45825-0.62627 0.44806 0.0304 0.86049 0.0458 1.2373 0.0458 0.82484 0 1.6268-0.0408 2.4058-0.12222"/>
 </g>
</svg>
