<?xml version="1.0" encoding="UTF-8" standalone="no"?>
<!-- Created with Inkscape (http://www.inkscape.org/) -->
<svg id="svg7384" xmlns:rdf="http://www.w3.org/1999/02/22-rdf-syntax-ns#" xmlns="http://www.w3.org/2000/svg" height="16" width="16" version="1.1" xmlns:cc="http://creativecommons.org/ns#" xmlns:dc="http://purl.org/dc/elements/1.1/">
 <metadata id="metadata90">
  <rdf:RDF>
   <cc:Work rdf:about="">
    <dc:format>image/svg+xml</dc:format>
    <dc:type rdf:resource="http://purl.org/dc/dcmitype/StillImage"/>
    <dc:title>Gnome Symbolic Icon Theme</dc:title>
   </cc:Work>
  </rdf:RDF>
 </metadata>
 <title id="title9167">Gnome Symbolic Icon Theme</title>
 <g id="layer9" transform="translate(-163 -175)">
  <path id="path14726" style="color:#000000;fill:#bebebe" d="m163.49 187.84c2.6272-0.74944 5.1115-1.9967 7.282-3.656 0.73727-0.56362 1.4536-1.1923 1.903-2.0042 0.22472-0.40596 0.37854-0.8547 0.41812-1.317 0.0396-0.46232-0.0382-0.93839-0.25137-1.3505-0.18032-0.34862-0.45433-0.64588-0.77767-0.86838-0.32335-0.22249-0.69505-0.37122-1.0795-0.45039-0.76885-0.15834-1.5738-0.039-2.3182 0.20988-1.0064 0.33645-1.9425 0.91913-2.6191 1.7366-0.67661 0.81751-1.0793 1.8772-1.0256 2.9371 0.0585 1.1534 0.65217 2.2426 1.4974 3.0296 0.84521 0.78703 1.9253 1.2902 3.0428 1.5816 1.6332 0.42589 3.378 0.41601 5.0063-0.0283 1.6283-0.44436 3.1362-1.3221 4.3267-2.5186l-0.0122-3.1051c-1.0511 1.6245-2.6462 2.8902-4.4671 3.5446-1.3716 0.49293-2.8998 0.63848-4.2914 0.2051-0.69578-0.2167-1.3496-0.57667-1.8866-1.0694-0.53692-0.49273-0.95449-1.1195-1.1765-1.8136-0.25715-0.80385-0.23972-1.7123 0.14549-2.4632 0.1926-0.37547 0.47436-0.7067 0.82221-0.94561s0.76192-0.38367 1.1836-0.39969c0.28215-0.0107 0.56749 0.0361 0.82742 0.14639 0.25994 0.11026 0.49377 0.28471 0.66525 0.50903 0.19754 0.25841 0.30853 0.57801 0.33645 0.90208 0.0279 0.32406-0.025 0.65235-0.13153 0.95967-0.21312 0.61463-0.63073 1.1352-1.0656 1.6191-1.7621 1.9608-3.9434 3.5431-6.3544 4.6093h-0.00001"/>
  <path id="rect5985" style="block-progression:tb;text-indent:0;color:#000000;enable-background:new;text-transform:none;fill:#bebebe" d="m164.5 175c-0.80699 0-1.4688 0.66176-1.4688 1.4688v13.031c0 0.80699 0.66176 1.5 1.4688 1.5h13.031c0.81 0 1.47-0.69 1.47-1.5v-13.031c0-0.81-0.66-1.47-1.47-1.47h-13.03zm0 1h13.031c0.27 0 0.47 0.2 0.47 0.47v13.03c0 0.27029-0.19846 0.5-0.46875 0.5h-13.03c-0.27029 0-0.46875-0.22971-0.46875-0.5v-13.031c0-0.27 0.2-0.47 0.47-0.47z"/>
 </g>
</svg>
