<?xml version="1.0" encoding="UTF-8" standalone="no"?>
<!-- Created with Inkscape (http://www.inkscape.org/) -->
<svg id="svg7384" xmlns:rdf="http://www.w3.org/1999/02/22-rdf-syntax-ns#" xmlns="http://www.w3.org/2000/svg" xmlns:osb="http://www.openswatchbook.org/uri/2009/osb" height="16" width="16" version="1.1" xmlns:cc="http://creativecommons.org/ns#" xmlns:dc="http://purl.org/dc/elements/1.1/">
 <metadata id="metadata90">
  <rdf:RDF>
   <cc:Work rdf:about="">
    <dc:format>image/svg+xml</dc:format>
    <dc:type rdf:resource="http://purl.org/dc/dcmitype/StillImage"/>
    <dc:title>Gnome Symbolic Icon Theme</dc:title>
   </cc:Work>
  </rdf:RDF>
 </metadata>
 <title id="title9167">Gnome Symbolic Icon Theme</title>
 <g id="layer9" transform="translate(-443 105)">
  <path id="rect11749-5-9-2-7" style="color:#bebebe;text-indent:0;block-progression:tb;text-decoration-line:none;text-transform:none;fill:#bebebe" d="m446.7-104c-1.5329 0-2.7188 1.3195-2.7188 2.8438v8.3438c0 1.5243 1.1859 2.8438 2.7188 2.8438h8.579c1.5329 0 2.75-1.3195 2.75-2.8438v-8.3438c0-1.5243-1.2171-2.8438-2.75-2.8438zm0.78125 1.0312c3.5267 0.25598 5.3172 0.13378 7.0477 0 0.75419-0.0583 1.5312 0.61584 1.5312 1.4375v7.375c0 0.66541-0.53119 1.0957-1.1875 1.1875-2.8364 0.39685-4.7531 0.44007-7.6727 0-0.65529-0.0988-1.1875-0.52209-1.1875-1.1875v-7.3438c0-0.82166 0.71429-1.5235 1.4688-1.4688z"/>
  <path id="path11643" style="color-rendering:auto;text-decoration-color:#000000;color:#000000;shape-rendering:auto;solid-color:#000000;text-decoration-line:none;fill:#bebebe;mix-blend-mode:normal;block-progression:tb;text-indent:0;image-rendering:auto;white-space:normal;text-decoration-style:solid;isolation:auto;text-transform:none" d="m453.56-99.023-2.9394 0.04492 0.0156 1 2.8789-0.04297c0.2004 0.01729 0.33082 0.07546 0.39649 0.13476 0.0669 0.06044 0.10546 0.1211 0.10546 0.29297l-0.008 0.60352h-2.4961l0.0371 0.002c-0.46556-0.03512-0.89235 0.14275-1.1641 0.42969-0.27171 0.28694-0.40289 0.65601-0.41601 1.0234-0.0131 0.36743 0.0913 0.74931 0.35156 1.0527 0.2603 0.30342 0.68726 0.49653 1.1621 0.48242h3.4824l0.0508-3.5898v-0.0039c0-0.40265-0.15996-0.78624-0.43554-1.0352-0.27559-0.24891-0.63064-0.36431-0.99805-0.39258l-0.0234-0.002zm-2.084 3.0332h0.0176 2.5l-0.0137 0.99023h-2.5195-0.008c-0.22008 0.0065-0.30136-0.05152-0.37109-0.13281-0.0697-0.08129-0.11659-0.21972-0.11133-0.36719 0.005-0.14747 0.062-0.28811 0.14062-0.37109 0.0786-0.08298 0.16508-0.13424 0.36524-0.11914z"/>
  <path id="path11645" style="color-rendering:auto;text-decoration-color:#000000;color:#000000;shape-rendering:auto;solid-color:#000000;text-decoration-line:none;fill:#bebebe;mix-blend-mode:normal;block-progression:tb;text-indent:0;image-rendering:auto;white-space:normal;text-decoration-style:solid;isolation:auto;text-transform:none" d="m454.34-101.97-3 1 0.3164 0.94922 3-1-0.3164-0.94922z"/>
 </g>
</svg>
