<?xml version="1.0" encoding="UTF-8" standalone="no"?>
<!-- Created with Inkscape (http://www.inkscape.org/) -->
<svg id="svg7384" xmlns:rdf="http://www.w3.org/1999/02/22-rdf-syntax-ns#" xmlns="http://www.w3.org/2000/svg" xmlns:osb="http://www.openswatchbook.org/uri/2009/osb" height="16" width="16.042" version="1.1" xmlns:cc="http://creativecommons.org/ns#" xmlns:dc="http://purl.org/dc/elements/1.1/">
 <metadata id="metadata90">
  <rdf:RDF>
   <cc:Work rdf:about="">
    <dc:format>image/svg+xml</dc:format>
    <dc:type rdf:resource="http://purl.org/dc/dcmitype/StillImage"/>
    <dc:title>Gnome Symbolic Icon Theme</dc:title>
   </cc:Work>
  </rdf:RDF>
 </metadata>
 <title id="title9167">Gnome Symbolic Icon Theme</title>
 <g id="layer9" transform="translate(-422.96 125)">
  <path id="path60865-7" style="color:#000000;fill:#bebebe" d="m432.97-124.97c-2.1912 0-3.9884 1.6982-3.9884 3.7812 0 3.0986 3.1388 8.1253 3.9884 8.1875 0.84956 0.0622 3.9572-5.1511 3.9572-8.1875 0-2.0831-1.766-3.7812-3.9572-3.7812zm-0.03 2.97c0.55067 0 0.99709 0.44772 0.99709 1s-0.44642 1-0.99709 1-0.99709-0.44772-0.99709-1 0.44642-1 0.99709-1z"/>
  <path id="path7210" style="block-progression:tb;text-indent:0;color:#000000;text-transform:none;fill:#bebebe" d="m437.74-114a0.99719 1.0001 0 0 0 -0.34275 0.15625l-4.2688 2.6562-4.0818-2.5312a0.99719 1.0001 0 0 0 -1.0282 0l-4.5804 2.8125a1.0074 1.0103 0 1 0 1.0594 1.7188l4.0195-2.5 4.0818 2.5312a0.99719 1.0001 0 0 0 1.0594 0l4.7985-3a0.99719 1.0001 0 0 0 -0.72 -1.84z"/>
 </g>
</svg>
