<?xml version="1.0" encoding="UTF-8" standalone="no"?>
<!-- Created with Inkscape (http://www.inkscape.org/) -->
<svg id="svg7384" xmlns:rdf="http://www.w3.org/1999/02/22-rdf-syntax-ns#" xmlns="http://www.w3.org/2000/svg" xmlns:osb="http://www.openswatchbook.org/uri/2009/osb" height="16" width="16" version="1.1" xmlns:cc="http://creativecommons.org/ns#" xmlns:dc="http://purl.org/dc/elements/1.1/">
 <metadata id="metadata90">
  <rdf:RDF>
   <cc:Work rdf:about="">
    <dc:format>image/svg+xml</dc:format>
    <dc:type rdf:resource="http://purl.org/dc/dcmitype/StillImage"/>
    <dc:title>Gnome Symbolic Icon Theme</dc:title>
   </cc:Work>
  </rdf:RDF>
 </metadata>
 <title id="title9167">Gnome Symbolic Icon Theme</title>
 <g id="layer9" transform="translate(-443 125)">
  <path id="path552" style="color:#bebebe;text-indent:0;block-progression:tb;text-decoration-line:none;enable-background:new;text-transform:none;fill:#bebebe" d="m451-122c-2.7496 0-5 2.2504-5 5 0 1.7833 0.9576 3.3626 2.375 4.25 0.16853-0.0758 0.34883-0.13986 0.53125-0.1875 0.22859-1.8167 1.7194-3.25 3.5938-3.25 1.0025 0 1.8385 0.47365 2.5 1.125 0.175-0.0333 0.30776-0.125 0.5-0.125 0.0432 0 0.0823-0.002 0.125 0 0.22408-0.56633 0.375-1.1698 0.375-1.8125 0-2.7496-2.2504-5-5-5z"/>
  <rect id="rect4906" style="color:#bebebe;enable-background:new;fill:#bebebe" rx=".5625" ry=".5625" height="2" width="2" y="-118" x="443"/>
  <rect id="rect4906-4" style="color:#bebebe;enable-background:new;fill:#bebebe" rx=".5625" ry=".5625" height="2" width="2" y="-118" x="457"/>
  <rect id="rect4088" style="color:#bebebe;enable-background:new;fill:#bebebe" rx=".5625" ry=".5625" transform="rotate(90)" width="2" y="-452" x="-125" height="2"/>
  <rect id="rect4075" style="color:#bebebe;enable-background:new;fill:#bebebe" rx=".5625" ry=".5625" transform="rotate(135)" width="2" y="-237.17" x="-409.64" height="2"/>
  <rect id="rect4077" style="color:#bebebe;enable-background:new;fill:#bebebe" rx=".5625" ry=".5625" transform="rotate(135)" width="2" y="-237.17" x="-395.64" height="2"/>
  <rect id="rect4081" style="color:#bebebe;enable-background:new;fill:#bebebe" rx=".5625" ry=".5625" transform="rotate(45)" width="2" y="-402.64" x="228.17" height="2"/>
  <path id="path5094-5-03" style="color:#000000;fill:#bebebe" d="m452.5-115c-1.3807 0-2.5 1.1193-2.5 2.5 0 0.21842 0.0411 0.42306 0.0937 0.625-0.17941-0.0759-0.38659-0.125-0.5937-0.125-0.82843 0-1.5 0.67157-1.5 1.5s0.67157 1.5 1.5 1.5h8c0.82843 0 1.5-0.67157 1.5-1.5s-0.67157-1.5-1.5-1.5c0-1.1046-0.89543-2-2-2-0.31572 0-0.60948 0.0885-0.875 0.21875-0.43705-0.72779-1.2143-1.2188-2.125-1.2188z"/>
 </g>
</svg>
