<?xml version="1.0" encoding="UTF-8" standalone="no"?>
<!-- Created with Inkscape (http://www.inkscape.org/) -->
<svg id="svg7384" xmlns:rdf="http://www.w3.org/1999/02/22-rdf-syntax-ns#" xmlns="http://www.w3.org/2000/svg" xmlns:osb="http://www.openswatchbook.org/uri/2009/osb" height="16" viewBox="0 0 16 16.000036" width="16" version="1.1" xmlns:cc="http://creativecommons.org/ns#" xmlns:dc="http://purl.org/dc/elements/1.1/">
 <metadata id="metadata90">
  <rdf:RDF>
   <cc:Work rdf:about="">
    <dc:format>image/svg+xml</dc:format>
    <dc:type rdf:resource="http://purl.org/dc/dcmitype/StillImage"/>
    <dc:title>Gnome Symbolic Icon Theme</dc:title>
   </cc:Work>
  </rdf:RDF>
 </metadata>
 <title id="title9167">Gnome Symbolic Icon Theme</title>
 <g id="layer11" transform="translate(-103 -669)">
  <path id="path27838" style="color-rendering:auto;text-decoration-color:#000000;color:#bebebe;font-variant-numeric:normal;shape-rendering:auto;solid-color:#000000;text-decoration-line:none;fill:#bebebe;font-variant-position:normal;mix-blend-mode:normal;font-feature-settings:normal;shape-padding:0;font-variant-alternates:normal;text-indent:0;font-variant-ligatures:normal;dominant-baseline:auto;font-variant-caps:normal;image-rendering:auto;white-space:normal;text-decoration-style:solid;text-orientation:mixed;isolation:auto;text-transform:none" d="m106.03 669 0.0332 0.002c-0.0413-0.001-0.0837-0.00076-0.125 0-0.011 0.00021-0.0222-0.00035-0.0332 0l0.0332 1.998-0.0781-1.9961c-1.0855 0.0845-1.8744 0.95319-1.8555 2.041v11.914c-0.0172 1.1595 0.88113 2.0579 2.041 2.041h9.918c1.1602 0.0172 2.0579-0.88185 2.041-2.041v-8.95c-0.008-0.54268-0.22494-1.045-0.61719-1.4219l-2.957-2.959c-0.3763-0.39244-0.87813-0.61129-1.4219-0.61914h-0.008zm-0.0176 2c-0.002-0.002 0.005 0.00084 0.002 0h6.9648c-0.0102-0.00015 0.0146 0.011 0.008 0.004l0.008 0.008 2.998 3.002 0.008 0.006c-0.007-0.007 0.004 0.0184 0.004 0.01v8.9592c-0.001-0.0796-0.0934 0.0105-0.0117 0.0117h-9.9769c0.0814-0.001-0.0105-0.0916-0.0117-0.0117v-11.979c0.00098 0.0562 0.0272 0.006 0.008-0.01z"/>
  <path id="rect11749-5-0-3-8" style="color-rendering:auto;text-decoration-color:#000000;color:#bebebe;font-variant-numeric:normal;shape-rendering:auto;solid-color:#000000;text-decoration-line:none;fill:#bebebe;font-variant-position:normal;mix-blend-mode:normal;font-feature-settings:normal;shape-padding:0;font-variant-alternates:normal;text-indent:0;font-variant-ligatures:normal;dominant-baseline:auto;font-variant-caps:normal;image-rendering:auto;white-space:normal;text-decoration-style:solid;text-orientation:mixed;isolation:auto;text-transform:none" d="m111 673.88c-2.2408 0-4.0606 1.8198-4.0606 4.0606s1.8198 4.0606 4.0606 4.0606 4.0606-1.8198 4.0606-4.0606-1.8198-4.0606-4.0606-4.0606zm0 1c1.7041 0 3.0606 1.3565 3.0606 3.0606s-1.3565 3.0606-3.0606 3.0606-3.0606-1.3565-3.0606-3.0606 1.3565-3.0606 3.0606-3.0606z"/>
  <path id="rect11749-5-0-3-3-0" style="color-rendering:auto;text-decoration-color:#000000;color:#bebebe;font-variant-numeric:normal;shape-rendering:auto;solid-color:#000000;text-decoration-line:none;fill:#bebebe;font-variant-position:normal;mix-blend-mode:normal;font-feature-settings:normal;shape-padding:0;font-variant-alternates:normal;text-indent:0;font-variant-ligatures:normal;dominant-baseline:auto;font-variant-caps:normal;image-rendering:auto;white-space:normal;text-decoration-style:solid;text-orientation:mixed;isolation:auto;text-transform:none" d="m111 675.94c-1.0994 0-2 0.90065-2 2s0.90065 2 2 2 2-0.90065 2-2-0.90065-2-2-2zm0 1c0.56265 0 1 0.43735 1 1s-0.43735 1-1 1-1-0.43735-1-1 0.43735-1 1-1z"/>
  <path id="path4624-6" style="fill:#bebebe" d="m109.33 674.6c-0.76818 0.30889-1.3637 0.91476-1.6689 1.6848l1.9073 0.95366c0.12816-0.32566 0.37765-0.59537 0.69936-0.73114zm3.3378 0-0.93777 1.9073c0.32171 0.13577 0.5712 0.40548 0.69936 0.73114l1.9073-0.95366c-0.30524-0.77005-0.90073-1.3759-1.6689-1.6848zm-3.0994 4.069-1.9073 0.95366c0.30877 0.75714 0.9099 1.3478 1.6689 1.653l0.95366-1.9073c-0.31881-0.12998-0.58152-0.3825-0.71525-0.69935zm2.861 0c-0.13373 0.31685-0.39644 0.56937-0.71525 0.69935l0.95366 1.9073c0.75901-0.3052 1.3601-0.89588 1.6689-1.653z"/>
 </g>
</svg>
