<?xml version="1.0" encoding="UTF-8" standalone="no"?>
<!-- Created with Inkscape (http://www.inkscape.org/) -->
<svg id="svg7384" xmlns:rdf="http://www.w3.org/1999/02/22-rdf-syntax-ns#" xmlns="http://www.w3.org/2000/svg" xmlns:osb="http://www.openswatchbook.org/uri/2009/osb" height="16" width="16" version="1.1" xmlns:cc="http://creativecommons.org/ns#" xmlns:dc="http://purl.org/dc/elements/1.1/">
 <metadata id="metadata90">
  <rdf:RDF>
   <cc:Work rdf:about="">
    <dc:format>image/svg+xml</dc:format>
    <dc:type rdf:resource="http://purl.org/dc/dcmitype/StillImage"/>
    <dc:title>Gnome Symbolic Icon Theme</dc:title>
   </cc:Work>
  </rdf:RDF>
 </metadata>
 <title id="title9167">Gnome Symbolic Icon Theme</title>
 <g id="layer11" transform="translate(-283.03 -629.03)">
  <path id="path2273-6-2" style="fill:#bebebe;fill-rule:evenodd" d="m288.03 639.03 6.9982-7 2 2-7 7h-2z"/>
  <path id="path6682-6" style="color:#000000;text-indent:0;block-progression:tb;text-decoration-line:none;text-transform:none;fill:#bebebe" d="m284.12 629.03c-0.56869 0.00005-1.0937 0.50285-1.0938 1.0625v12.844 0.25 0.78125c0.00005 0.55965 0.52506 1.0624 1.0938 1.0625h4.3438 1.125 5.3438c0.55754-0.00005 1.074-0.48468 1.0938-1.0312 0.00039-0.0109 0-0.0204 0-0.0312v-6.9376l-2 2v4h-9v-12h5l2 2 1.5312-1.5312-2.1875-2.125c-0.20046-0.20837-0.48969-0.3416-0.78125-0.34375z"/>
  <path id="rect9831-8" style="color-rendering:auto;color:#000000;shape-rendering:auto;solid-color:#000000;fill:#bebebe;fill-rule:evenodd;mix-blend-mode:normal;image-rendering:auto;isolation:auto;paint-order:normal" d="m297.22 630.04c-0.13169 0-0.26338 0.0504-0.36429 0.15136l-1.1622 1.1609 2.0049 2.0049 1.1622-1.1622c0.20182-0.20182 0.20182-0.52678 0-0.7286l-1.2763-1.275c-0.10087-0.10088-0.2326-0.15136-0.3643-0.15136z"/>
 </g>
</svg>
