<?xml version="1.0" encoding="UTF-8" standalone="no"?>
<!-- Created with Inkscape (http://www.inkscape.org/) -->
<svg id="svg7384" xmlns:rdf="http://www.w3.org/1999/02/22-rdf-syntax-ns#" xmlns="http://www.w3.org/2000/svg" xmlns:osb="http://www.openswatchbook.org/uri/2009/osb" height="16" viewBox="0 0 16 16" width="16" version="1.1" xmlns:cc="http://creativecommons.org/ns#" xmlns:dc="http://purl.org/dc/elements/1.1/">
 <metadata id="metadata90">
  <rdf:RDF>
   <cc:Work rdf:about="">
    <dc:format>image/svg+xml</dc:format>
    <dc:type rdf:resource="http://purl.org/dc/dcmitype/StillImage"/>
    <dc:title>Gnome Symbolic Icon Theme</dc:title>
   </cc:Work>
  </rdf:RDF>
 </metadata>
 <title id="title9167">Gnome Symbolic Icon Theme</title>
 <g id="layer12" transform="translate(-381.06 -807)">
  <path id="path9795" style="color-rendering:auto;text-decoration-color:#000000;color:#000000;font-variant-numeric:normal;shape-rendering:auto;solid-color:#000000;text-decoration-line:none;fill:#bebebe;fill-rule:evenodd;font-variant-position:normal;mix-blend-mode:normal;font-feature-settings:normal;shape-padding:0;font-variant-alternates:normal;text-indent:0;font-variant-ligatures:normal;dominant-baseline:auto;font-variant-caps:normal;image-rendering:auto;white-space:normal;text-decoration-style:solid;text-orientation:mixed;isolation:auto;text-transform:none" d="m384 808a1.0001 1.0001 0 0 0 -1 1v4a1.0001 1.0001 0 1 0 2 0v-3h5.5859l2.4141 2.4141v8.59h-8v-3c0-0.66667 0.18578-0.72473 0.44727-0.85547 0.26-0.13 0.55-0.14 0.55-0.14h1.5859l-0.29297 0.29297c-0.18755 0.1875-0.29293 0.44183-0.29297 0.70703v1h1c0.27 0 0.52853-0.10919 0.7168-0.30273l2.68-2.7-2.7-2.71c-0.19-0.18-0.44-0.29-0.71-0.29h-1v1c0.00004 0.2652 0.10566 0.51976 0.29297 0.70703 0.003 0.004 0.007 0.007 0.01 0.01l0.29 0.28h-1.5859s-0.70875-0.0138-1.4473 0.35547c-0.73851 0.36926-1.5527 1.3112-1.5527 2.6445v4a1.0001 1.0001 0 0 0 1 1h10a1.0001 1.0001 0 0 0 1 -1v-10a1.0001 1.0001 0 0 0 -0.29297 -0.70703l-3-3a1.0001 1.0001 0 0 0 -0.71 -0.29z"/>
 </g>
</svg>
