<?xml version="1.0" encoding="UTF-8" standalone="no"?>
<!-- Created with Inkscape (http://www.inkscape.org/) -->
<svg id="svg7384" xmlns:rdf="http://www.w3.org/1999/02/22-rdf-syntax-ns#" xmlns="http://www.w3.org/2000/svg" xmlns:osb="http://www.openswatchbook.org/uri/2009/osb" height="16" viewBox="0 0 16 16" width="16" version="1.1" xmlns:cc="http://creativecommons.org/ns#" xmlns:dc="http://purl.org/dc/elements/1.1/">
 <metadata id="metadata90">
  <rdf:RDF>
   <cc:Work rdf:about="">
    <dc:format>image/svg+xml</dc:format>
    <dc:type rdf:resource="http://purl.org/dc/dcmitype/StillImage"/>
    <dc:title>Gnome Symbolic Icon Theme</dc:title>
   </cc:Work>
  </rdf:RDF>
 </metadata>
 <title id="title9167">Gnome Symbolic Icon Theme</title>
 <g id="layer12" transform="translate(-361 -807)">
  <path id="path9737" style="color-rendering:auto;text-decoration-color:#000000;color:#000000;font-variant-numeric:normal;shape-rendering:auto;solid-color:#000000;text-decoration-line:none;fill:#bebebe;fill-rule:evenodd;font-variant-position:normal;mix-blend-mode:normal;font-feature-settings:normal;shape-padding:0;font-variant-alternates:normal;text-indent:0;font-variant-ligatures:normal;dominant-baseline:auto;font-variant-caps:normal;image-rendering:auto;white-space:normal;text-decoration-style:solid;text-orientation:mixed;isolation:auto;text-transform:none" d="m364 808a1.0001 1.0001 0 0 0 -1 1v13a1.0001 1.0001 0 0 0 1 1h10a1.0001 1.0001 0 0 0 1 -1v-4c0-1.3333-0.81422-2.2753-1.5527-2.6445-0.74-0.37-1.45-0.36-1.45-0.36h-1.5859l0.28321-0.2832c0.003-0.003 0.007-0.006 0.01-0.01 0.18683-0.18681 0.29269-0.4416 0.29273-0.7068v-1h-1c-0.2652 0.00004-0.51953 0.10542-0.70703 0.29297l-2.69 2.71 2.6973 2.6973c0.18827 0.19354 0.4468 0.30273 0.7168 0.30273h1v-1c-0.00004-0.2652-0.10542-0.51953-0.29297-0.70703l-0.31-0.29h1.5859s0.29125 0.0138 0.55273 0.14453c0.26149 0.13074 0.44727 0.1888 0.44727 0.85547v3h-8v-11h5.5859l2.4141 2.4141v0.59a1.0001 1.0001 0 1 0 2 0v-1a1.0001 1.0001 0 0 0 -0.29297 -0.70703l-3-3a1.0001 1.0001 0 0 0 -0.71 -0.29z"/>
 </g>
</svg>
