<?xml version="1.0" encoding="UTF-8" standalone="no"?>
<!-- Created with Inkscape (http://www.inkscape.org/) -->
<svg id="svg7384" xmlns:rdf="http://www.w3.org/1999/02/22-rdf-syntax-ns#" xmlns="http://www.w3.org/2000/svg" xmlns:osb="http://www.openswatchbook.org/uri/2009/osb" height="16" viewBox="0 0 16.00034 16" width="16" version="1.1" xmlns:cc="http://creativecommons.org/ns#" xmlns:dc="http://purl.org/dc/elements/1.1/">
 <metadata id="metadata90">
  <rdf:RDF>
   <cc:Work rdf:about="">
    <dc:format>image/svg+xml</dc:format>
    <dc:type rdf:resource="http://purl.org/dc/dcmitype/StillImage"/>
    <dc:title>Gnome Symbolic Icon Theme</dc:title>
   </cc:Work>
  </rdf:RDF>
 </metadata>
 <title id="title9167">Gnome Symbolic Icon Theme</title>
 <g id="layer12" transform="translate(-301 -727)">
  <path id="path7307" style="fill:#bebebe" d="m313 736v2h-2v1.9967h2v1.9967h2v-1.9967h2v-2h-2v-1.9968z"/>
  <path id="path9166-8" style="color-rendering:auto;text-decoration-color:#000000;color:#000000;font-variant-numeric:normal;shape-rendering:auto;solid-color:#000000;text-decoration-line:none;fill:#bebebe;fill-rule:evenodd;font-variant-position:normal;mix-blend-mode:normal;font-feature-settings:normal;shape-padding:0;font-variant-alternates:normal;text-indent:0;font-variant-ligatures:normal;dominant-baseline:auto;font-variant-caps:normal;image-rendering:auto;white-space:normal;text-decoration-style:solid;text-orientation:mixed;isolation:auto;text-transform:none" d="m303 728c-0.83333 0-1.5253 0.56422-1.7695 1.0527-0.24 0.49-0.23 0.95-0.23 0.95v10c0 0.83333 0.56422 1.5253 1.0527 1.7695 0.48852 0.24426 0.94727 0.23047 0.94727 0.23047h6s1 0 1-1-1-1-1-1h-6v-10h4.5859l2 2h5.4141v2c0 1 1 1 1 1s1 0 1-1v-2s0.0138-0.45875-0.23047-0.94727c-0.24-0.49-0.94-1.05-1.77-1.05h-4.5859l-2-2z"/>
 </g>
</svg>
