<?xml version="1.0" encoding="UTF-8" standalone="no"?>
<!-- Created with Inkscape (http://www.inkscape.org/) -->
<svg id="svg7384" xmlns:rdf="http://www.w3.org/1999/02/22-rdf-syntax-ns#" xmlns="http://www.w3.org/2000/svg" xmlns:osb="http://www.openswatchbook.org/uri/2009/osb" height="16.003" width="16" version="1.1" xmlns:cc="http://creativecommons.org/ns#" xmlns:dc="http://purl.org/dc/elements/1.1/">
 <metadata id="metadata90">
  <rdf:RDF>
   <cc:Work rdf:about="">
    <dc:format>image/svg+xml</dc:format>
    <dc:type rdf:resource="http://purl.org/dc/dcmitype/StillImage"/>
    <dc:title>Gnome Symbolic Icon Theme</dc:title>
   </cc:Work>
  </rdf:RDF>
 </metadata>
 <title id="title9167">Gnome Symbolic Icon Theme</title>
 <g id="layer12" transform="translate(-161 -807)">
  <path id="path5874" style="color-rendering:auto;color:#000000;isolation:auto;mix-blend-mode:normal;shape-rendering:auto;solid-color:#000000;image-rendering:auto;enable-background:new;fill:#bebebe" d="m169 807c-2.7614 0-5 2.2386-5 5 0 0.17259 0.0142 0.33191 0.0312 0.5 0.0137 0.16725 0.0358 0.33617 0.0625 0.5 0.57248 3.5144 2.9063 6.0034 4.9063 8.0034 2-2 4.3337-4.4889 4.9062-8.0034 0.0267-0.16383 0.0488-0.33275 0.0625-0.5 0.0171-0.16809 0.0312-0.32741 0.0312-0.5 0-2.7614-2.2386-5-5-5zm0 3c1.1046 0 2 0.89543 2 2s-0.89543 2-2 2-2-0.89543-2-2 0.89543-2 2-2z"/>
 </g>
</svg>
