<?xml version="1.0" encoding="UTF-8" standalone="no"?>
<!-- Created with Inkscape (http://www.inkscape.org/) -->
<svg id="svg7384" xmlns:rdf="http://www.w3.org/1999/02/22-rdf-syntax-ns#" xmlns="http://www.w3.org/2000/svg" xmlns:osb="http://www.openswatchbook.org/uri/2009/osb" height="16.01" viewBox="0 0 16.031294 16.010071" width="16.031" version="1.1" xmlns:cc="http://creativecommons.org/ns#" xmlns:dc="http://purl.org/dc/elements/1.1/">
 <metadata id="metadata90">
  <rdf:RDF>
   <cc:Work rdf:about="">
    <dc:format>image/svg+xml</dc:format>
    <dc:type rdf:resource="http://purl.org/dc/dcmitype/StillImage"/>
    <dc:title>Gnome Symbolic Icon Theme</dc:title>
   </cc:Work>
  </rdf:RDF>
 </metadata>
 <title id="title9167">Gnome Symbolic Icon Theme</title>
 <g id="layer13" transform="translate(-481 -174.99)">
  <path id="path9199" style="color:#000000;text-indent:0;text-decoration-line:none;text-transform:none;fill:#bebebe" d="m482.03 174.99s-1 0-1 1l-0.03 9.01c0.00002 0.83333 0.57399 1.5057 1.0625 1.75 0.48851 0.24436 0.9375 0.25 0.9375 0.25h4v2h-5.5312c-0.26299 0-0.46875 0.20565-0.46875 0.46875v1.0625c0 0.263 0.20576 0.46875 0.46875 0.46875h13.062c0.26299 0 0.46875-0.20575 0.46875-0.46875v-1.0625c0-0.263-0.20575-0.46875-0.46875-0.46875h-5.5312v-2h4c2 0 2-2 2-2v-5h-11.031l-0.46875 5.0312c-0.0164 0.2618-0.26945 0.48511-0.53125 0.46875-0.2618-0.0164-0.48511-0.26945-0.46875-0.53125l0.5-5.5c0.01-0.22281 0.18713-0.42714 0.40625-0.46875 0.0312-0.003 0.0626-0.003 0.0937 0h10.5l0.0312-1.0098c0-1-0.96484-0.99023-0.96484-0.99023h-4.0664l-1.9688-2.0098z"/>
 </g>
</svg>
