<?xml version="1.0" encoding="UTF-8" standalone="no"?>
<!-- Created with Inkscape (http://www.inkscape.org/) -->
<svg id="svg4460" xmlns:rdf="http://www.w3.org/1999/02/22-rdf-syntax-ns#" xmlns="http://www.w3.org/2000/svg" height="24" width="24" version="1.1" xmlns:cc="http://creativecommons.org/ns#" xmlns:dc="http://purl.org/dc/elements/1.1/">
 <metadata id="metadata4465">
  <rdf:RDF>
   <cc:Work rdf:about="">
    <dc:format>image/svg+xml</dc:format>
    <dc:type rdf:resource="http://purl.org/dc/dcmitype/StillImage"/>
    <dc:title/>
   </cc:Work>
  </rdf:RDF>
 </metadata>
 <g id="layer1" transform="translate(0 -1028.4)">
  <path id="path4064" style="opacity:.3;block-progression:tb;text-indent:0;color:#000000;text-transform:none;fill:#fff" d="m12.5 1c-4.0887 0-7.5 3.1008-7.5 7v8c0 1.091 0.9093 2 2 2h0.5625l-2.2813 2.281c-0.5743 0.556-0.0799 1.738 0.7188 1.719h4c0.336 0 0.665-0.184 0.844-0.469l1.656-2.469 1.656 2.469c0.179 0.285 0.508 0.468 0.844 0.469h4c0.799 0.019 1.293-1.163 0.719-1.719l-2.281-2.281h0.562c1.091 0 2-0.909 2-2v-8c0-3.8992-3.411-7-7.5-7zm-1.5 4.5312v3.4688h-2v-1c0-1.1222 0.8624-1.9672 2-2.4688zm3 0c1.138 0.5016 2 1.3466 2 2.4688v1h-2v-3.4688z" transform="translate(0 1028.4)"/>
  <path id="rect3109" style="fill:#444" d="m12.5 2c-3.5899 0-6.5 2.6863-6.5 6v8c0 0.554 0.446 1 1 1h11c0.554 0 1-0.446 1-1v-8c0-3.3137-2.91-6-6.5-6zm-0.5 2.0625v5.9375h-4v-2c0-2.0564 1.7539-3.7132 4-3.9375zm1 0c2.246 0.2243 4 1.8811 4 3.9375v2h-4v-5.9375zm-4 8.9375c0.5523 0 1 0.448 1 1s-0.4477 1-1 1-1-0.448-1-1 0.4477-1 1-1zm7 0c0.552 0 1 0.448 1 1s-0.448 1-1 1-1-0.448-1-1 0.448-1 1-1z" transform="translate(0 1028.4)"/>
  <path id="path3067-4" d="m12 1046.4h-3l-3 3h4z" style="fill:#444"/>
  <path id="path3069-8" style="fill:#444" d="m13 1046.4h3l3 3h-4z"/>
 </g>
</svg>
