<?xml version="1.0" encoding="UTF-8" standalone="no"?>
<!-- Created with Inkscape (http://www.inkscape.org/) -->
<svg id="svg7384" xmlns:rdf="http://www.w3.org/1999/02/22-rdf-syntax-ns#" xmlns="http://www.w3.org/2000/svg" height="16" width="16" version="1.1" xmlns:cc="http://creativecommons.org/ns#" xmlns:dc="http://purl.org/dc/elements/1.1/">
 <metadata id="metadata90">
  <rdf:RDF>
   <cc:Work rdf:about="">
    <dc:format>image/svg+xml</dc:format>
    <dc:type rdf:resource="http://purl.org/dc/dcmitype/StillImage"/>
    <dc:title>Gnome Symbolic Icon Theme</dc:title>
   </cc:Work>
  </rdf:RDF>
 </metadata>
 <title id="title9167">Gnome Symbolic Icon Theme</title>
 <g id="layer9" transform="translate(-43 -175)">
  <path id="path1234" style="block-progression:tb;text-indent:0;color:#000000;text-transform:none;fill:#bebebe" d="m45.813 176a1.0001 1.0001 0 0 0 -0.8125 1v13a1.0001 1.0001 0 0 0 1 1h10a1.0001 1.0001 0 0 0 1 -1v-9.4375a1.0001 1.0001 0 0 0 -0.28125 -0.71875l-3.5625-3.5625a1.0001 1.0001 0 0 0 -0.718 -0.28h-6.4375a1.0001 1.0001 0 0 0 -0.0937 0 1.0001 1.0001 0 0 0 -0.0937 0zm1.1875 2h5v3h3v8h-8v-11z"/>
  <path id="path3095" style="block-progression:tb;text-indent:0;color:#000000;enable-background:new;text-transform:none;fill:#bebebe" d="m50 176.56v4.625l-0.53125 0.53125-0.53125-0.46875v-2.3125h-1v2.5625 0.21875l0.15625 0.15625 1.0312 0.90625 0.375 0.3125 0.3125-0.34375 1.0312-1.0312 0.15625-0.125v-0.21875-4.8125h-1z"/>
  <path id="path3867" style="block-progression:tb;text-indent:0;color:#000000;enable-background:new;text-transform:none;fill:#bebebe" d="m53 180.38v3.625h-6.4375v1h6.9375 0.5v-0.5-4.125h-1z"/>
 </g>
</svg>
