<?xml version="1.0" encoding="UTF-8" standalone="no"?>
<!-- Created with Inkscape (http://www.inkscape.org/) -->
<svg id="svg7384" xmlns:rdf="http://www.w3.org/1999/02/22-rdf-syntax-ns#" xmlns="http://www.w3.org/2000/svg" xmlns:osb="http://www.openswatchbook.org/uri/2009/osb" height="16" width="16" version="1.1" xmlns:cc="http://creativecommons.org/ns#" xmlns:dc="http://purl.org/dc/elements/1.1/">
 <metadata id="metadata90">
  <rdf:RDF>
   <cc:Work rdf:about="">
    <dc:format>image/svg+xml</dc:format>
    <dc:type rdf:resource="http://purl.org/dc/dcmitype/StillImage"/>
    <dc:title>Gnome Symbolic Icon Theme</dc:title>
   </cc:Work>
  </rdf:RDF>
 </metadata>
 <title id="title9167">Gnome Symbolic Icon Theme</title>
 <g id="layer9" transform="translate(-61 -317)">
  <path id="path3807-2" style="color-rendering:auto;text-decoration-color:#000000;color:#000000;shape-rendering:auto;solid-color:#000000;text-decoration-line:none;fill:#bebebe;mix-blend-mode:normal;block-progression:tb;opacity:.5;text-indent:0;image-rendering:auto;white-space:normal;text-decoration-style:solid;isolation:auto;text-transform:none" d="m67 317v0.99414 0.006 3.5859l-1.293-1.293c-0.237-0.25-0.592-0.29-0.922-0.29h-0.75977v0.70117c0 0.36616-0.00061 0.74235 0.26758 1l2.707 2.707v1.1719l-2.707 2.707c-0.23813 0.22889-0.29297 0.56073-0.29297 0.88658v0.81445h0.79297c0.33837 0 0.67802-0.0422 0.91406-0.28711l1.293-1.293v3.5859 0.006 0.99414h0.99414c0.26723 0.002 0.52395-0.10399 0.71289-0.29297l2.293-2.2931v-3.4141h1.4141l-2-2 2.293-2.293c0.39037-0.39053 0.39037-1.0235 0-1.4141l-4-4c-0.189-0.2-0.445-0.3-0.713-0.3zm2 3.4141 1.5859 1.5859-1.5859 1.5859zm0 6 1.5859 1.5859-1.5859 1.5859z"/>
  <path id="path3761-2-3-5-4-8-9-8-0-9" style="color:#bebebe;fill:#bebebe" d="m72 328h1.375l1.125 1.0938 1.0938-1.0938h1.4062v1.4688l-1.0938 1.0625 1.0938 1.0625v1.4062h-1.4375l-1.0625-1.0625-1.0625 1.0625h-1.4375v-1.4062l1.0625-1.0625-1.0625-1.0625v-1.4688z"/>
 </g>
</svg>
