<?xml version="1.0" encoding="UTF-8" standalone="no"?>
<!-- Created with Inkscape (http://www.inkscape.org/) -->
<svg id="svg7384" xmlns:rdf="http://www.w3.org/1999/02/22-rdf-syntax-ns#" xmlns="http://www.w3.org/2000/svg" xmlns:osb="http://www.openswatchbook.org/uri/2009/osb" height="16" width="16" version="1.1" xmlns:cc="http://creativecommons.org/ns#" xmlns:dc="http://purl.org/dc/elements/1.1/">
 <metadata id="metadata90">
  <rdf:RDF>
   <cc:Work rdf:about="">
    <dc:format>image/svg+xml</dc:format>
    <dc:type rdf:resource="http://purl.org/dc/dcmitype/StillImage"/>
    <dc:title>Gnome Symbolic Icon Theme</dc:title>
   </cc:Work>
  </rdf:RDF>
 </metadata>
 <title id="title9167">Gnome Symbolic Icon Theme</title>
 <g id="layer9" transform="translate(-141 -317)">
  <path id="path44196" style="opacity:.5;color:#bebebe;text-indent:0;block-progression:tb;text-decoration-line:none;text-transform:none;fill:#bebebe" d="m150 317v0.78125a1.0011 1.0011 0 0 0 1.0312 1.2188h0.59375l-2.5625 2.5625-2.375-2.2812a1.0055 1.0055 0 0 0 -0.71875 -0.28125h-0.125-0.84375v0.75a1.0055 1.0055 0 0 0 0 0.0937 1.0055 1.0055 0 0 0 0.28125 0.875l3.0938 2.9688 0.6875 0.6875 0.71875-0.6875 3.2188-3.25v0.5625a1.0001 1.0001 0 0 0 1 1h1v-0.84375a1.0001 1.0001 0 0 0 0 -0.1562v-3-1h-1-2.9688a1.0001 1.0001 0 0 0 -0.0312 0h-1z"/>
  <path id="rect5922-5-0" style="enable-background:new;fill:#bebebe" d="m141.27 330.71c-0.34368-0.34368-0.34865-1.075-0.00002-1.4237l0.0404-0.0403c4.2666-4.2446 11.167-4.2381 15.425 0.0201l0.02 0.0201c0.35061 0.35061 0.31852 1.0702-0.0201 1.4438l-1.9306 1.9969c-0.35652 0.35653-0.93056 0.35652-1.2871 0.00001l-1.2871-1.2871c-0.35652-0.35653-0.35653-0.93055-0.00001-1.2871l0.30167-0.30165c-2.2272-1.0638-4.8116-1.0638-7.0388 0.00001l0.30166 0.30164c0.35653 0.35654 0.35652 0.93056 0 1.2871l-1.2871 1.2871c-0.35653 0.35653-0.93663 0.3625-1.2871 0z"/>
 </g>
</svg>
