<?xml version="1.0" encoding="UTF-8" standalone="no"?>
<!-- Created with Inkscape (http://www.inkscape.org/) -->
<svg id="svg7384" xmlns:rdf="http://www.w3.org/1999/02/22-rdf-syntax-ns#" xmlns="http://www.w3.org/2000/svg" xmlns:osb="http://www.openswatchbook.org/uri/2009/osb" height="16" width="16" version="1.1" xmlns:cc="http://creativecommons.org/ns#" xmlns:dc="http://purl.org/dc/elements/1.1/">
 <metadata id="metadata90">
  <rdf:RDF>
   <cc:Work rdf:about="">
    <dc:format>image/svg+xml</dc:format>
    <dc:type rdf:resource="http://purl.org/dc/dcmitype/StillImage"/>
    <dc:title>Gnome Symbolic Icon Theme</dc:title>
   </cc:Work>
  </rdf:RDF>
 </metadata>
 <title id="title9167">Gnome Symbolic Icon Theme</title>
 <g id="layer9" transform="translate(-241 -237)">
  <path id="path4998" style="color-rendering:auto;text-decoration-color:#000000;color:#bebebe;shape-rendering:auto;solid-color:#000000;text-decoration-line:none;fill:#bebebe;mix-blend-mode:normal;block-progression:tb;opacity:.5;text-indent:0;image-rendering:auto;white-space:normal;text-decoration-style:solid;isolation:auto;text-transform:none" d="m245 248v1.0098h3v0.99023h-5v2h12v-2h-5v-0.99023h3v-1.0098h-8z"/>
  <path id="rect5002" style="opacity:.5;color:#bebebe;fill:#bebebe" d="m249 238c-1.645 0-3 1.355-3 3v1h-1v1.0098h8v-1.0098h-1v-1c0-1.645-1.355-3-3-3zm0 2c0.56413 0 1 0.43588 1 1v1h-2v-1c0-0.56412 0.43587-1 1-1z"/>
  <circle id="path4955-1-1" cy="245.5" cx="244.5" r="1.5" style="fill:#bebebe"/>
  <circle id="path4957-2-6" cy="245.5" cx="248.5" r="1.5" style="fill:#bebebe"/>
  <circle id="path4959-4-4" cy="245.5" cx="252.5" r="1.5" style="fill:#bebebe"/>
 </g>
</svg>
