<?xml version="1.0" encoding="UTF-8" standalone="no"?>
<!-- Created with Inkscape (http://www.inkscape.org/) -->
<svg id="svg7384" xmlns:rdf="http://www.w3.org/1999/02/22-rdf-syntax-ns#" xmlns="http://www.w3.org/2000/svg" xmlns:osb="http://www.openswatchbook.org/uri/2009/osb" height="16" viewBox="0 0 16 16" width="16" version="1.1" xmlns:cc="http://creativecommons.org/ns#" xmlns:dc="http://purl.org/dc/elements/1.1/">
 <metadata id="metadata90">
  <rdf:RDF>
   <cc:Work rdf:about="">
    <dc:format>image/svg+xml</dc:format>
    <dc:type rdf:resource="http://purl.org/dc/dcmitype/StillImage"/>
    <dc:title>Gnome Symbolic Icon Theme</dc:title>
   </cc:Work>
  </rdf:RDF>
 </metadata>
 <title id="title9167">Gnome Symbolic Icon Theme</title>
 <g id="layer9" transform="translate(-61 -377)">
  <path id="path14179-1" style="color-rendering:auto;text-decoration-color:#000000;color:#000000;font-variant-numeric:normal;shape-rendering:auto;solid-color:#000000;text-decoration-line:none;fill:#bebebe;font-variant-position:normal;mix-blend-mode:normal;font-feature-settings:normal;shape-padding:0;font-variant-alternates:normal;text-indent:0;font-variant-ligatures:normal;dominant-baseline:auto;font-variant-caps:normal;image-rendering:auto;white-space:normal;text-decoration-style:solid;text-orientation:mixed;isolation:auto;text-transform:none" d="m69.011 378c-0.2659-0.00099-0.49844 0.11705-0.66456 0.25574-0.16611 0.1387-0.28894 0.30319-0.40121 0.4821-0.22452 0.35782-0.4039 0.7871-0.57667 1.2219-0.17276 0.43484-0.33589 0.87296-0.49336 1.2176-0.15746 0.34465-0.34931 0.58789-0.36232 0.59694-0.01287 0.009-0.31109 0.10788-0.69964 0.1427-0.38855 0.0348-0.87179 0.0437-1.3538 0.0639-0.48203 0.0202-0.96072 0.0489-1.3835 0.14089-0.21137 0.046-0.41156 0.10694-0.6005 0.21502-0.18894 0.10807-0.37829 0.28274-0.46144 0.52645s-0.03776 0.49339 0.04761 0.68869c0.08537 0.19531 0.20757 0.3598 0.34922 0.51811 0.2833 0.31662 0.6517 0.61272 1.0269 0.90564 0.3752 0.29293 0.75794 0.57953 1.049 0.83053 0.29104 0.251 0.46932 0.50053 0.47421 0.51528 0.0048 0.0146 0.01022 0.3187-0.07553 0.68602-0.08576 0.36734-0.22377 0.8154-0.35279 1.264s-0.24993 0.89463-0.28988 1.311c-0.01997 0.20819-0.02197 0.41078 0.02617 0.61757 0.04813 0.20679 0.16181 0.43574 0.37633 0.58735 0.21451 0.15161 0.47398 0.1879 0.69286 0.1699 0.21887-0.018 0.4182-0.0811 0.61801-0.16214 0.39961-0.16214 0.80574-0.40662 1.2104-0.66042 0.40465-0.2538 0.80446-0.51786 1.1418-0.70738 0.33733-0.18951 0.64076-0.27585 0.65681-0.27578 0.01586 0.00006 0.31659 0.0895 0.65215 0.28172 0.33555 0.1922 0.73283 0.45766 1.1351 0.71468 0.4023 0.25703 0.80678 0.50676 1.2048 0.67209 0.19903 0.0827 0.39837 0.14713 0.61706 0.16685 0.2187 0.0197 0.47801-0.0164 0.69374-0.16641 0.21573-0.15 0.3315-0.37605 0.3814-0.58247s0.05071-0.40964 0.03255-0.61805c-0.03632-0.41683-0.15331-0.86399-0.27842-1.3138-0.1251-0.44977-0.25987-0.89942-0.34242-1.2676-0.08256-0.36814-0.07535-0.67197-0.07033-0.68668 0.005-0.0145 0.18548-0.26343 0.47861-0.51196 0.29314-0.24855 0.67982-0.53211 1.0575-0.82186 0.37765-0.28976 0.74624-0.58238 1.0322-0.89659 0.14298-0.15711 0.26844-0.32004 0.35546-0.51464s0.13398-0.44333 0.05279-0.68766-0.26927-0.42229-0.45731-0.53187-0.38754-0.17227-0.59857-0.22001c-0.42206-0.0955-0.9002-0.12556-1.3822-0.14975-0.48198-0.0242-0.96668-0.0389-1.355-0.0769-0.38835-0.038-0.6854-0.13877-0.69834-0.14792-0.01279-0.009-0.20311-0.25266-0.3575-0.59847-0.15438-0.34581-0.31331-0.78647-0.4822-1.2226-0.1689-0.43609-0.34426-0.86603-0.56558-1.2256-0.11067-0.17976-0.23137-0.34484-0.39629-0.48483-0.16491-0.13999-0.39743-0.26054-0.66334-0.26153zm-0.0046 1.0053c0.04279 0.0377 0.11449 0.11955 0.18961 0.24158 0.15477 0.25141 0.32328 0.64736 0.48657 1.069 0.16328 0.42164 0.32458 0.86996 0.50153 1.2663 0.17693 0.39632 0.32984 0.74829 0.69057 1.0034 0.36073 0.25509 0.75117 0.28864 1.1962 0.33219 0.44506 0.0435 0.93833 0.0567 1.4043 0.0801 0.46599 0.0234 0.90868 0.0606 1.2039 0.12741 0.14295 0.0323 0.24408 0.0719 0.29446 0.1-0.02391 0.0509-0.08264 0.14154-0.1797 0.24819-0.19997 0.21973-0.53551 0.49659-0.90063 0.77672-0.36512 0.28014-0.75914 0.56656-1.0951 0.8514-0.33595 0.28485-0.63424 0.53217-0.77419 0.94204-0.13995 0.40988-0.05392 0.78231 0.04069 1.2042s0.23512 0.87829 0.35608 1.3131c0.12096 0.43486 0.22122 0.85063 0.24663 1.1422 0.01233 0.14151 0.0034 0.24686-0.0088 0.30165-0.05767-0.006-0.16523-0.0312-0.30004-0.0872-0.27836-0.11562-0.65418-0.34082-1.0431-0.58931-0.38894-0.24849-0.79433-0.51964-1.1789-0.73992s-0.71945-0.41837-1.1667-0.42016c-0.44722-0.002-0.78619 0.19251-1.1728 0.40971-0.38659 0.21719-0.79393 0.4861-1.1852 0.73148-0.39123 0.24538-0.77052 0.46711-1.0501 0.58053-0.1356 0.055-0.24266 0.0807-0.30043 0.0865-0.01166-0.0548-0.01997-0.16203-0.0064-0.30336 0.02793-0.29118 0.13253-0.70524 0.25726-1.139 0.12473-0.43372 0.26927-0.88883 0.36755-1.3098 0.09827-0.42099 0.18857-0.79213 0.05213-1.2031s-0.43423-0.66029-0.76776-0.94794c-0.33354-0.28765-0.72438-0.57809-1.0871-0.86129-0.36275-0.28321-0.69697-0.56275-0.89515-0.78424-0.09619-0.1075-0.1529-0.1996-0.17644-0.25081 0.05051-0.0276 0.15153-0.0663 0.29466-0.0974 0.29562-0.0644 0.73768-0.098 1.2037-0.11751 0.46602-0.0196 0.95772-0.028 1.403-0.0679 0.44531-0.0399 0.83903-0.0718 1.2019-0.32403 0.36289-0.25221 0.5175-0.60129 0.69795-0.99627 0.18046-0.39496 0.34677-0.84305 0.5138-1.2635 0.16704-0.42041 0.33762-0.81378 0.49468-1.0641 0.07659-0.12206 0.148-0.20382 0.19113-0.24098z"/>
 </g>
</svg>
